<svg width="425" height="425" viewBox="0 0 850 850" fill="none" xmlns="http://www.w3.org/2000/svg">
<circle cx="425" cy="425" r="425" fill="#4D32E4"/>
<circle cx="425" cy="425" r="423" fill="white"/>
<path d="M509.469 508.053C501.872 508.07 494.452 510.339 488.144 514.572C481.837 518.805 476.925 524.812 474.03 531.835C471.135 538.859 470.387 546.582 471.88 554.031C473.372 561.479 477.039 568.318 482.417 573.683C487.794 579.048 494.641 582.699 502.093 584.175C509.545 585.65 517.267 584.884 524.283 581.973C531.3 579.062 537.296 574.137 541.515 567.82C545.733 561.502 547.984 554.076 547.984 546.48C547.984 541.426 546.988 536.422 545.051 531.754C543.114 527.086 540.276 522.846 536.698 519.276C533.12 515.707 528.874 512.878 524.201 510.952C519.529 509.026 514.522 508.041 509.469 508.053Z" fill="#4D32E4"/>
<path d="M425 0C312.283 0 204.183 44.7767 124.48 124.48C44.7767 204.183 0 312.283 0 425C0 537.717 44.7767 645.817 124.48 725.52C204.183 805.223 312.283 850 425 850C537.717 850 645.818 805.223 725.52 725.52C805.223 645.817 850 537.717 850 425C850 312.283 805.223 204.183 725.52 124.48C645.818 44.7767 537.717 0 425 0ZM762.344 590.573C753.079 573.995 738.571 560.963 721.097 553.525C703.624 546.086 684.174 544.661 665.803 549.474C647.432 554.287 631.18 565.066 619.599 580.117C608.018 595.168 601.763 613.639 601.818 632.63V753.135C601.818 754.375 601.818 755.526 601.818 756.766C550.98 784.039 494.526 799.19 436.865 801.036C375.171 732.029 343.334 641.388 348.323 548.958C352.269 487.815 372.507 428.843 406.938 378.162C407.467 377.444 407.707 376.553 407.608 375.667C407.51 374.78 407.081 373.964 406.406 373.38C405.697 372.938 404.861 372.742 404.029 372.822C403.197 372.902 402.415 373.254 401.802 373.823C348.903 417.011 313.887 478.272 303.521 545.771C302.37 551.792 301.042 562.063 300.333 567.729C300.333 570.208 296.792 570.828 295.287 570.385C266.556 560.844 240.482 544.66 219.18 523.149C197.879 501.638 181.952 475.406 172.692 446.584C163.433 417.761 161.102 387.161 165.889 357.269C170.676 327.376 182.446 299.035 200.243 274.546C218.04 250.056 241.363 230.11 268.316 216.326C295.27 202.543 325.094 195.311 355.367 195.218C385.64 195.126 415.508 202.175 442.546 215.793C469.583 229.411 493.027 249.214 510.974 273.594C512.809 276.186 515.237 278.302 518.055 279.765C520.874 281.228 524.001 281.996 527.177 282.005H601.464H772.349C792.723 331.25 802.376 384.269 800.666 437.534C798.956 490.8 785.922 543.091 762.432 590.927L762.344 590.573Z" fill="#4D32E4"/>
</svg>
